<svg width="84" height="84" viewBox="0 0 84 84" fill="none" xmlns="http://www.w3.org/2000/svg">
<path d="M82 54C82 69.084 82 72.628 77.312 77.312C72.624 81.996 65.084 82 50 82M34 2C18.916 2 11.372 2 6.688 6.688C2.004 11.376 2 14.916 2 30M42 22C30.292 22 22.32 28.248 17.568 33.76C15.188 36.52 14 37.9 14 42C14 46.1 15.188 47.48 17.568 50.24C22.32 55.752 30.288 62 42 62C53.712 62 61.68 55.752 66.432 50.24C68.812 47.48 70 46.1 70 42C70 37.9 68.812 36.52 66.432 33.76C64.0146 30.9176 61.1699 28.4684 58 26.5" stroke="white" stroke-width="4" stroke-linecap="round"/>
<path d="M41.9999 49.9998C46.4182 49.9998 49.9999 46.418 49.9999 41.9998C49.9999 37.5815 46.4182 33.9998 41.9999 33.9998C37.5817 33.9998 33.9999 37.5815 33.9999 41.9998C33.9999 46.418 37.5817 49.9998 41.9999 49.9998Z" stroke="white" stroke-width="4"/>
<path d="M34 82H30M2 54C2 69.084 2 72.628 6.688 77.312C9.3 79.928 12.8 81.084 18 81.592M50 2H54M82 30C82 14.916 82 11.372 77.312 6.688C74.7 4.072 71.2 2.916 66 2.408" stroke="white" stroke-width="4" stroke-linecap="round"/>
</svg>
