<svg width="84" height="84" viewBox="0 0 84 84" fill="none" xmlns="http://www.w3.org/2000/svg">
<path d="M2 42C2 31.3913 6.21427 21.2172 13.7157 13.7157C21.2172 6.21427 31.3913 2 42 2M2 42C2 52.6087 6.21427 62.7828 13.7157 70.2843C21.2172 77.7857 31.3913 82 42 82M2 42H12.6645M42 2C52.6087 2 62.7828 6.21427 70.2843 13.7157C77.7857 21.2172 82 31.3913 82 42M42 2V12.6645M82 42C82 52.6087 77.7857 62.7828 70.2843 70.2843C62.7828 77.7857 52.6087 82 42 82M82 42H71.3355M42 82V71.3355M31.5249 42H52.4751M42 31.5249V52.4751" stroke="white" stroke-width="4" stroke-linecap="round" stroke-linejoin="round"/>
</svg>
