<svg width="84" height="84" viewBox="0 0 84 84" fill="none" xmlns="http://www.w3.org/2000/svg">
<path d="M6.0004 62.0001C6.0004 64.4754 6.98373 66.8494 8.73407 68.5997C10.4844 70.3501 12.8584 71.3334 15.3337 71.3334C17.8091 71.3334 20.1831 70.3501 21.9334 68.5997C23.6837 66.8494 24.6671 64.4754 24.6671 62.0001C24.6671 59.5247 23.6837 57.1508 21.9334 55.4004C20.1831 53.6501 17.8091 52.6667 15.3337 52.6667C12.8584 52.6667 10.4844 53.6501 8.73407 55.4004C6.98373 57.1508 6.0004 59.5247 6.0004 62.0001Z" stroke="white" stroke-width="4" stroke-linecap="round" stroke-linejoin="round"/>
<path d="M28.6671 82.0001C27.3782 79.5835 25.4568 77.5626 23.1083 76.1535C20.7598 74.7444 18.0725 74.0001 15.3337 74.0001C12.5949 74.0001 9.90763 74.7444 7.55913 76.1535C5.21063 77.5626 3.28924 79.5835 2.0004 82.0001M59.3337 62.0001C59.3337 63.2258 59.5752 64.4394 60.0442 65.5718C60.5132 66.7042 61.2007 67.7331 62.0674 68.5997C62.9341 69.4664 63.963 70.1539 65.0954 70.623C66.2277 71.092 67.4414 71.3334 68.6671 71.3334C69.8927 71.3334 71.1064 71.092 72.2388 70.623C73.3712 70.1539 74.4001 69.4664 75.2667 68.5997C76.1334 67.7331 76.8209 66.7042 77.2899 65.5718C77.759 64.4394 78.0004 63.2258 78.0004 62.0001C78.0004 59.5247 77.0171 57.1508 75.2667 55.4004C73.5164 53.6501 71.1424 52.6667 68.6671 52.6667C66.1917 52.6667 63.8178 53.6501 62.0674 55.4004C60.3171 57.1508 59.3337 59.5247 59.3337 62.0001Z" stroke="white" stroke-width="4" stroke-linecap="round" stroke-linejoin="round"/>
<path d="M82.0005 82C80.7117 79.5834 78.7903 77.5625 76.4418 76.1534C74.0933 74.7443 71.406 74 68.6672 74C65.9284 74 63.2411 74.7443 60.8926 76.1534C58.5441 77.5625 56.6227 79.5834 55.3338 82M53.5525 28.6667C52.1272 26.9941 50.3558 25.6509 48.3608 24.7298C46.3657 23.8087 44.1944 23.3317 41.9969 23.3317C39.7995 23.3317 37.6282 23.8087 35.6331 24.7298C33.638 25.6509 31.8667 26.9941 30.4414 28.6667M31.5152 69.4027C38.325 71.9979 45.8554 71.975 52.6494 69.3387M21.9081 20.6667C18.9896 23.4009 16.6633 26.705 15.0732 30.3745C13.4831 34.044 12.663 38.0008 12.6636 42C12.6636 42.8996 12.7169 43.7778 12.7987 44.6667M71.1987 44.6667C71.277 43.7849 71.3338 42.8889 71.3338 42C71.3345 38.0008 70.5144 34.044 68.9243 30.3745C67.3342 26.705 65.0079 23.4009 62.0894 20.6667M32.6672 11.3333C32.6672 12.559 32.9086 13.7727 33.3776 14.905C33.8467 16.0374 34.5342 17.0663 35.4008 17.933C36.2675 18.7997 37.2964 19.4872 38.4288 19.9562C39.5612 20.4253 40.7748 20.6667 42.0005 20.6667C43.2262 20.6667 44.4398 20.4253 45.5722 19.9562C46.7046 19.4872 47.7335 18.7997 48.6002 17.933C49.4668 17.0663 50.1543 16.0374 50.6234 14.905C51.0924 13.7727 51.3338 12.559 51.3338 11.3333C51.3338 8.85798 50.3505 6.48401 48.6002 4.73367C46.8498 2.98333 44.4759 2 42.0005 2C39.5251 2 37.1512 2.98333 35.4008 4.73367C33.6505 6.48401 32.6672 8.85798 32.6672 11.3333Z" stroke="white" stroke-width="4" stroke-linecap="round" stroke-linejoin="round"/>
</svg>
