<svg width="1080" height="1080" viewBox="0 0 1080 1080" fill="none" xmlns="http://www.w3.org/2000/svg">
<path d="M692.879 9.91406H692.875C686.652 9.91406 681.457 14.7031 681.031 20.9101C678.965 50.8321 668.539 78.4801 651.996 101.461C639.922 118.527 624.336 133.031 606.461 144.094C585.406 157.105 561.082 165.242 534.992 167.051C528.746 167.484 523.891 172.645 523.891 178.906V178.969C523.891 185.219 528.719 190.391 534.953 190.82C562.512 192.727 588.102 201.711 609.898 216.008C612.734 217.828 615.566 219.785 618.266 221.809C622.516 225.047 626.629 228.418 630.477 232.062C641.133 241.773 650.441 253.043 658.066 265.453C671.074 286.445 679.211 310.754 681.023 336.789C681.457 343.035 686.617 347.891 692.879 347.891C699.102 347.891 704.293 343.094 704.723 336.887C706.379 312.934 713.406 290.445 724.648 270.648C738.883 245.285 760.066 224.305 785.5 210.203C805.078 199.273 827.238 192.445 850.844 190.816C857.059 190.391 861.863 185.203 861.863 178.973V178.898C861.863 172.684 857.082 167.484 850.879 167.059C834.77 165.941 819.352 162.395 804.926 156.777C780.844 147.469 759.66 132.422 743.066 113.266C721.234 88.1911 707.164 56.1371 704.723 20.9141C704.293 14.7071 699.102 9.91406 692.879 9.91406ZM692.859 54.6021C699.617 80.2891 712.199 104.062 730.039 124.551C748.574 145.945 772.32 162.648 798.672 172.836C804.785 175.215 811.012 177.242 817.328 178.91C803.363 182.578 789.918 188.004 777.129 195.137C748.773 210.859 725.441 234.039 709.645 262.172C702.234 275.219 696.625 288.953 692.855 303.246C688.492 286.734 681.711 270.898 672.738 256.41C664.289 242.66 654.02 230.219 642.203 219.434C638.332 215.773 633.914 212.062 628.711 208.098L628.66 208.059L628.605 208.02C625.668 205.816 622.535 203.641 619.285 201.551C603.648 191.309 586.422 183.684 568.379 178.938C584.988 174.57 600.93 167.77 615.531 158.75C635.633 146.309 652.621 130.402 666.027 111.469C678.422 94.2341 687.48 74.9611 692.859 54.6021Z" fill="#0275B7"/>
<path d="M523.891 1059.35V1061.32C523.891 1066.27 519.727 1070.26 514.785 1070.08C304.473 1062.36 218.438 1000.56 218.438 1000.56V769.914C218.438 765.09 222.344 761.18 227.168 761.18H228.168C231.969 761.18 235.355 763.625 236.484 767.25C261.008 845.945 341.742 1026.97 516.246 1050.74C520.594 1051.33 523.891 1054.96 523.891 1059.35ZM828.098 968.145C828.098 968.145 773.902 1056.06 598.039 1068.55C593.008 1068.9 588.719 1064.86 588.719 1059.82V1059.59C588.719 1055.65 591.383 1052.31 595.152 1051.17C696.734 1020.48 714.324 870.062 578.746 769.91L386.742 648.977C209.707 538.016 154.848 399.625 259.578 264.977C259.578 264.977 316.07 184.441 483.348 172.082C488.395 171.707 492.723 175.762 492.723 180.82C492.723 184.844 489.945 188.246 486.066 189.301C383.34 217.203 363.648 354.27 508.93 449.496L700.934 576.66C865.496 685.129 921.605 832.242 828.098 968.145Z" fill="#0275B7"/>
</svg>
